<?xml version="1.0" encoding="UTF-8"?>
<svg width="752pt" height="752pt" version="1.1" viewBox="0 0 752 752" xmlns="http://www.w3.org/2000/svg">
 <g>
  <path d="m325.5 168.82c-0.78516 0.03125-1.5586 0.15234-2.3125 0.36719-91.328 26.293-154.32 108.86-154.38 202.7 0 116.68 96.27 211.31 214.58 211.31v-0.003906h0.019531c87.621-0.097656 166.5-52.648 199.07-132.88 1.418-3.5039 0.71094-7.5078-1.8203-10.312-2.5312-2.8047-6.4414-3.918-10.07-2.8672-17.773 5.1562-36.199 7.7891-54.727 7.8242-107.81 0-194.84-85.742-194.84-191.58 0.054687-24.324 4.8086-48.402 14.027-70.977v-0.003906c1.2656-3.1094 0.86719-6.6484-1.0625-9.3945-1.9297-2.75-5.1211-4.3281-8.4766-4.1914zm-14.723 26.074c-5.6406 19.047-9.457 38.559-9.5 58.469 0 116.68 96.27 211.33 214.58 211.33h-0.003907 0.023438c13.07 0 25.797-3.1562 38.617-5.5117-33.227 62.836-97.918 104.22-171.1 104.28-107.81 0-194.84-85.734-194.84-191.58 0.054687-78.664 49.117-148.04 122.23-177.01z"/>
  <path d="m415.48 297.08c-4.0195-0.007812-7.6445 2.4297-9.1562 6.1562-1.5117 3.7305-0.60938 8.0039 2.2812 10.801l59.082 59.074c3.8516 3.8516 10.094 3.8516 13.945 0l59.082-59.074c1.9023-1.8398 2.9883-4.3633 3.0117-7.0117 0.023438-2.6445-1.0156-5.1914-2.8867-7.0625s-4.418-2.9141-7.0625-2.8906c-2.6484 0.023437-5.1719 1.1094-7.0117 3.0156l-52.109 52.102-52.109-52.102h0.003906c-1.8516-1.918-4.4023-3.0039-7.0703-3.0078z" fill-rule="evenodd"/>
  <path d="m474.51 218.14c-5.4414 0.085937-9.7891 4.5586-9.7148 10v137.85c-0.035156 2.6406 0.98828 5.1875 2.8398 7.0664 1.8555 1.8828 4.3867 2.9414 7.0273 2.9414 2.6406 0 5.1719-1.0586 7.0273-2.9414 1.8516-1.8789 2.875-4.4258 2.8398-7.0664v-137.85c0.035156-2.668-1.0078-5.2344-2.8984-7.1172-1.8867-1.8867-4.457-2.9258-7.1211-2.8828z" fill-rule="evenodd"/>
 </g>
</svg>
